Coordinates
nRows=117
nColumns=2
inDegrees=yes
endheader
time	ankle_angle_r	
3.75	 -4.791260	
3.8125	 -4.806519	
3.875	 -4.815601	
3.9375	 -4.828135	
4	 -4.813058	
4.0625	 -4.799798	
4.125	 -4.782904	
4.1875	 -4.844121	
4.25	 -4.768735	
4.3125	 -4.714966	
4.375	 -4.776001	
4.4375	 -4.829225	
4.5	 -4.905337	
4.5625	 -4.798344	
4.625	 -4.806519	
4.6875	 -4.860833	
4.75	 -4.717145	
4.8125	 -4.791260	
4.875	 -4.852295	
4.9375	 -4.766737	
5	 -4.800706	
5.0625	 -4.796891	
5.125	 -4.740034	
5.1875	 -4.720234	
5.25	 -4.638672	
5.3125	 -4.714966	
5.375	 -4.664466	
5.4375	 -4.623413	
5.5	 -4.664830	
5.5625	 -4.691351	
5.625	 -4.726228	
5.6875	 -4.749298	
5.75	 -4.676455	
5.8125	 -4.764194	
5.875	 -4.745483	
5.9375	 -4.721142	
6	 -4.818871	
6.0625	 -4.809243	
6.125	 -4.831950	
6.1875	 -4.760742	
6.25	 -4.810878	
6.3125	 -4.726228	
6.375	 -4.791260	
6.4375	 -4.837036	
6.5	 -4.803612	
6.5625	 -4.792531	
6.625	 -4.792350	
6.6875	 -4.865737	
6.75	 -4.776728	
6.8125	 -4.867009	
6.875	 -4.776364	
6.9375	 -4.836854	
7	 -4.821777	
7.0625	 -4.867372	
7.125	 -4.775638	
7.1875	 -4.823412	
7.25	 -4.912603	
7.3125	 -4.807427	
7.375	 -4.821777	
7.4375	 -4.820506	
7.5	 -4.794166	
7.5625	 -4.899706	
7.625	 -4.776001	
7.6875	 -4.732223	
7.75	 -4.867554	
7.8125	 -4.697346	
7.875	 -4.753113	
7.9375	 -4.760742	
8	 -4.677909	
8.0625	 -4.861378	
8.125	 -4.730225	
8.1875	 -4.841941	
8.25	 -4.741850	
8.3125	 -4.714966	
8.375	 -4.772005	
8.4375	 -4.771823	
8.5	 -4.856655	
8.5625	 -4.939306	
8.625	 -4.837036	
8.6875	 -4.862649	
8.75	 -4.831950	
8.8125	 -4.837036	
8.875	 -4.842486	
8.9375	 -4.745483	
9	 -4.806519	
9.0625	 -4.913330	
9.125	 -4.815601	
9.1875	 -4.861196	
9.25	 -4.869733	
9.3125	 -4.767463	
9.375	 -4.776001	
9.4375	 -4.807609	
9.5	 -4.805792	
9.5625	 -4.874638	
9.625	 -4.898071	
9.6875	 -4.821777	
9.75	 -4.874093	
9.8125	 -4.806519	
9.875	 -4.806519	
9.9375	 -4.752204	
10	 -4.754203	
10.0625	 -4.876455	
10.125	 -4.886082	
10.1875	 -4.922595	
10.25	 -4.913330	
10.3125	 -4.846663	
10.375	 -4.907880	
10.4375	 -4.903339	
10.5	 -4.877726	
10.5625	 -4.938398	
10.625	 -4.923866	
10.6875	 -4.902613	
10.75	 -4.913330	
10.8125	 -4.856473	
10.875	 -4.913330	
10.9375	 -4.894257	
11	 -4.863921	
